<svg width="606" height="266" viewBox="0 0 606 266" fill="none" xmlns="http://www.w3.org/2000/svg">
<mask id="path-1-inside-1_341_510" fill="white">
<path d="M561 0C585.853 0 606 20.1472 606 45V192.952C606 217.805 585.832 237.952 560.979 237.952H109.639L83 266L56.3613 237.952H45.0205C20.1677 237.952 0 217.805 0 192.952V45C2.68012e-05 20.1472 20.1472 0 45 0H561Z"/>
</mask>
<path d="M109.639 237.952V234.952H108.351L107.463 235.886L109.639 237.952ZM83 266L80.8247 268.066L83 270.356L85.1753 268.066L83 266ZM56.3613 237.952L58.5366 235.886L57.6495 234.952H56.3613V237.952ZM0 45L-3 45V45H0ZM561 0V3C584.196 3 603 21.804 603 45H606H609C609 18.4903 587.51 -3 561 -3V0ZM606 45H603V192.952H606H609V45H606ZM606 192.952H603C603 216.146 584.177 234.952 560.979 234.952V237.952V240.952C587.487 240.952 609 219.464 609 192.952H606ZM560.979 237.952V234.952H109.639V237.952V240.952H560.979V237.952ZM109.639 237.952L107.463 235.886L80.8247 263.934L83 266L85.1753 268.066L111.814 240.018L109.639 237.952ZM83 266L85.1753 263.934L58.5366 235.886L56.3613 237.952L54.1861 240.018L80.8247 268.066L83 266ZM56.3613 237.952V234.952H45.0205V237.952V240.952H56.3613V237.952ZM45.0205 237.952V234.952C21.8228 234.952 3 216.146 3 192.952H0H-3C-3 219.464 18.5126 240.952 45.0205 240.952V237.952ZM0 192.952H3V45H0H-3V192.952H0ZM0 45L3 45C3.00003 21.8041 21.8041 3 45 3V0V-3C18.4903 -3 -2.99997 18.4904 -3 45L0 45ZM45 0V3H561V0V-3H45V0Z" fill="#B9FF66" mask="url(#path-1-inside-1_341_510)"/>
</svg>
